# xmcd
#
# Track frame offsets: 
#        150
#        14241
#        32348
#        48265
#        67642
#        82229
#        107689
#        123865
#        139269
#        157266
#        167793
#        186918
#
# Disc length: 2706 seconds
#
# Revision: 0
# Processed by: cddbd v1.5.2PL0 Copyright (c) Steve Scherf et al.
# Submitted via: ExactAudioCopy v0.99pb5
#
DISCID=a10a900c
DTITLE=Glenn Skuthorpe - Restless Souls
DYEAR=2004
DGENRE=Crossover
TTITLE0=Mojo Friend
TTITLE1=Mailman
TTITLE2=My Name Is
TTITLE3=Restless Souls
TTITLE4=Joe Black
TTITLE5=No More Whispering
TTITLE6=Angeline
TTITLE7=Anyone To talk To
TTITLE8=Thousand Miles
TTITLE9=(Illusion)
TTITLE10=Coming To Get Me
TTITLE11=Sylvia
EXTD=
EXTT0=
EXTT1=
EXTT2=
EXTT3=
EXTT4=
EXTT5=
EXTT6=
EXTT7=
EXTT8=
EXTT9=
EXTT10=
EXTT11=
PLAYORDER=
